<svg xmlns="http://www.w3.org/2000/svg" viewBox="0 0 1000 1000" enable-background="new 0 0 1000 1000"><g fill="#fff"><path d="M324.2 504.6c44.9 38.6 96.4 58.9 154 64.9v183.8c-11.1-3.5-21.7-6.3-31.8-10.2-24.2-9.3-44.7-24.2-63.9-41.5-31.3-28.2-55.4-61.8-76.3-98-19.5-33.8-35.4-69.3-46.2-106.9-6.6-23-11.1-46.7-16.4-70-5.3-23.5-4.7-47.4-3.4-71.1 1.5-26.5 8-52.3 18.3-77 9.5-23 21.6-44.5 37.1-63.8 15.2-19 32.7-35.9 52.5-50.1 29.2-20.9 61.4-35.1 96.4-43.1 25.4-5.8 51.1-7.1 76.9-5.5 29.5 1.9 57.9 9.4 85 21.3 19.7 8.6 38.3 19.4 54.9 33.1 8.4 6.9 17.5 13.3 24.7 21.3 12.6 14.2 25.1 28.8 35.6 44.6 13 19.5 23.6 40.7 29.3 63.6 4.1 16.1 7.9 32.5 9.7 49 1.9 17.3 2.5 34.9 1.2 52.2-1.8 26-7.1 51.7-14.1 76.9-8.5 30.5-19.6 59.9-32.9 88.6-15.3 32.9-33.8 63.8-55.9 92.5-22.6 29.3-49 54.9-81.3 73.6-15.4 8.9-32 15.2-49.5 18.9-1.3.3-2.8 0-4.5 0v-182.2c57.4-6 109.1-26.2 153-64.6-117.1 40.9-234.2 35.1-352.4-.3zM878.1 869h-754.4v-6.4c0-60.2.1-120.3-.1-180.5 0-5.2 1.9-7.4 6.3-9.7 32.3-16.7 65.6-31 100.3-41.9 15.1-4.7 30.3-9.1 45.3-13.5 9.8 15.6 18.4 31.4 29 45.7 13.6 18.5 28.4 36 43.2 53.6 16.3 19.3 35.8 34.9 57 48.4 22.2 14.2 46 24.1 72.2 28.5 33.2 5.6 64.3-.5 94.3-14.1 25.1-11.3 46.8-27.4 66.9-46.1 31.2-29 56.4-62.6 78-99.1 3.2-5.4 6.5-10.8 10.2-16.9 11.2 3.2 22.7 6.4 34.1 9.8 39.2 11.6 76.8 27.2 113 46.1 3.1 1.6 5.2 2.9 5.2 7.1-.2 61.8-.1 123.7-.1 185.5-.2 1.2-.3 2.2-.4 3.5z"/></g></svg>