<svg xmlns="http://www.w3.org/2000/svg" viewBox="0 0 1000 1000" enable-background="new 0 0 1000 1000"><path fill="#fff" d="M886.6 469.9v63.2c-.6 3.9-1.3 7.8-1.8 11.7-13.5 106.7-62.2 193.9-146.6 260.5-50.4 39.8-107.6 65.1-171.1 75.5-13.8 2.3-27.7 3.9-41.5 5.8h-46.6l-6.6-1.3c-23.4-4-47.3-6.2-70.2-12.2-79.5-20.9-145.3-63.9-197.6-127.2-46-55.8-74.2-119.7-83.9-191.5-1.8-13.1-2.9-26.3-4.3-39.5v-27.1c1.6-15.1 2.6-30.4 5-45.3 15.3-94.1 59-172.5 131.4-234.6 53.2-45.6 114.7-74.4 183.9-86 13.5-2.3 27.1-3.8 40.7-5.7h48.1l6.6 1.3c24.6 4.3 50 6 73.7 13.3 147.1 45.5 238.4 143.8 273.4 293.9 3.5 15 5 30.2 7.4 45.2zm-273 31.3c43.1-43.1 85.7-85.6 127.1-127l-111.1-111.6c-42 42.1-84.5 84.7-127.8 128-42.9-43.1-85.5-85.9-127.4-127.9-37.3 37.3-74.3 74.2-112.6 112.5 42.1 42.1 84.8 84.7 127.9 127.8-42.2 42.1-84.8 84.5-126.5 126 37.1 37.3 73.9 74.3 111.9 112.5 42.2-42.3 84.7-85 128.7-129.1 42.6 42.8 85.2 85.4 127 127.3l110.8-110.8c-42.1-42.2-84.7-84.6-128-127.7z"/></svg>