<svg xmlns="http://www.w3.org/2000/svg" viewBox="0 0 1000 1000" enable-background="new 0 0 1000 1000"><path fill="#fff" stroke="#000" stroke-miterlimit="10" d="M311.6 635.3l459.8-486.6 100.6-23.5-21.8 102.4-486.6 459.7-52-52zm47.6 69.4l-64.1-64.1-151.8 151.8 64.1 64.1 151.8-151.8zm48.9 13.7l-130.9-130.9-45.3 45.3 130.9 130.9 45.3-45.3zm-188.4 64.7c-26.7-26.7-63.2-33.5-81.5-15.2-18.3 18.3-11.5 54.8 15.2 81.5 26.7 26.7 63.2 33.5 81.5 15.2 18.3-18.4 11.5-54.8-15.2-81.5zm415.6-94.7l-486.6-459.7-23.5-100.7 102.4 21.8 459.8 486.6-52.1 52zm69.4-47.6l-64.1 64.1 151.7 151.7 64.1-64.1-151.7-151.7zm13.7-48.9l-130.9 130.9 45.3 45.3 130.9-130.9-45.3-45.3zm64.7 188.4c-26.7 26.7-33.5 63.2-15.2 81.5 18.3 18.3 54.8 11.5 81.5-15.2 26.7-26.7 33.5-63.2 15.2-81.5-18.4-18.3-54.8-11.5-81.5 15.2z"/></svg>