<svg xmlns="http://www.w3.org/2000/svg" viewBox="0 0 1000 1000" enable-background="new 0 0 1000 1000"><path fill="#fff" d="M422.5 353.1c-11-11.7-20.1-24.8-25.7-40-5.8-15.9-7.9-32.2-6-49.4 1.8-16.3 6.6-31.2 15-45 8.4-13.9 19-26 33.2-34.3 7.6-4.4 15.6-8.1 23.6-11.8 3-1.4 4.4-2.9 4.3-6.4-.3-9.6.1-19.3-.1-28.9-.3-16 7.5-26.7 21.6-33.1 10.1-4.6 28.1 1.3 35 10.9 4.3 6 6.5 12.4 6.1 20-.4 10 .2 20.1-.3 30.1-.2 4.6 1.6 6.9 5.5 8.1 16.1 5 29.5 14.3 41.2 26.2 12.6 12.7 20.9 27.9 26.3 45 5.4 17.4 5.6 35.1 2.4 52.5-3.1 16.7-10.2 32.2-21.4 45.5-.7.9-1.1 2.2-2 2.8-10.8 6.7-4.4 15.1-1.8 22.5 5.3 15.2 11.5 30 17.3 45 4.4 11.3 8.8 22.5 13 33.8l11 30.2c4 10.3 8.5 20.5 12.4 30.9 4.1 10.9 7.8 21.9 11.8 32.8 5.1 13.6 11.2 26.8 15.2 40.7 2.7 9.5 7.6 11.2 16.5 10.9 18.9-.7 37.8-.5 56.7-.1 6 .1 8.4-1.6 7.5-7.6-.3-2.3-.1-4.7-.1-7.9h5.9c19.1 0 38.2-.3 57.3.1 13.3.3 21.9 7.2 28.2 19.2 8.4 16-4.5 37.2-17.7 41-3.7 1.1-7.5 2.1-11.3 2.1-20.5.2-40.9.1-62.1.1v-16.1h-64.5c2.6 7.7 5 15.3 7.8 22.7l11.4 28.2c6.1 15.9 11.9 31.9 17.8 47.9 3.8 10.2 8.4 20.2 11 30.7 4.5 18.3 2.4 36.1-7.4 52.5-2.7 4.6-6.5 8.6-9.3 13.1-1.4 2.3-2.4 5.3-2.4 8-.2 24.4-.1 48.8-1.2 73.5l-6-14.9c-6.3-16.6-12.7-33.2-18.9-49.8-6.9-18.5-13.4-37.1-20.3-55.5l-25.9-69.3c-7.5-19.9-15-39.7-22.6-59.6-3.2-8.4-6.3-16.8-9.7-25.1-.5-1.2-2.4-2.7-3.7-2.7-26.3-.2-52.7-.1-79.8-.1 0 12.7.1 25.1 0 37.4-.1 6.8-1.6 13.2-7.3 17.6-5.9 4.6-12.9 5.4-19.6 2.3-7.2-3.4-10.9-9.6-10.9-17.8 0-11-.2-22.1.1-33.1.1-4.7-1.1-6.6-6.2-6.5-24 .3-48 .2-72.1.1-3.4 0-4.9.8-6.2 4.4-7.1 19.4-14.9 38.7-22.3 58-3.8 9.9-7.1 19.9-10.9 29.7l-19.3 50.4c-6.1 16.1-12 32.2-18 48.3-3.5 9.3-6.9 18.6-10.5 27.9-4.3 11.5-8.7 22.9-13.1 34.4-3.1 8.2-6.1 16.4-10.3 24.5-.1-1.6-.3-3.2-.3-4.7 0-23.2.1-46.5-.2-69.7 0-3.2-1.1-7.2-3.1-9.5-15.1-16.5-19.2-36.3-16.5-57.4 1.4-10.7 6-21 9.8-31.2 7.9-21.4 16.1-42.7 24.2-64 5.1-13.4 10.1-26.8 15.4-40.7h-63.8v16.1h-27c-11.2 0-22.5-.3-33.7.1-21.3.6-35.2-15.8-34.1-34.5.8-12.7 13.8-27.8 26.6-28.1 22.4-.5 44.8-.1 67.9-.1v15.4h18.2c17.5 0 35-.1 52.6.1 4.1.1 5.7-1.2 7-5 6.6-18.4 13.5-36.7 20.5-54.9 8.5-22.1 17.4-44.1 25.8-66.3 10.4-27.6 20.5-55.4 30.8-83 3.9-9.9 7.8-19.5 11.7-29.6zm87.3 30.6c-6.7 0-13.2-.1-19.7.1-1.5.1-3.7.9-4.3 2-1.6 3.2-2.5 6.7-3.8 10.1-5.4 14.5-10.7 29.1-16.2 43.6-9.1 24-18.4 47.9-27.4 71.8-5.8 15.2-11.3 30.5-17 45.7-4.2 11.4-8.5 22.7-12.9 34.6h67c4.1 0 4.3-2.4 4.2-5.4-.1-11.2-.1-22.4 0-33.6.1-9.2 4.7-15.7 12.5-18.9 9.7-4.1 25.4 2.7 25.3 18.7-.1 11.2.2 22.4-.1 33.6-.1 4.4 1.5 5.9 5.8 5.7 7.1-.3 14.2-.1 21.2-.1h43.6c-26.2-69.8-52.1-138.8-78.2-207.9zm39.6-108.9c1.9-28.8-23.7-51.1-48.3-51.7-32.2-.8-54.7 23.2-54.5 52 .2 29.4 22.9 51 51.1 52 27.2.8 54.5-24.8 51.7-52.3z"/></svg>