<svg xmlns="http://www.w3.org/2000/svg" viewBox="0 0 1000 1000" enable-background="new 0 0 1000 1000"><path fill="#fff" d="M389.8 273s4.5-22.7 40.2-13.3c.3.1-11.7-2.1-11.4-2.1l-1.6-32.8c-8.5-18.7-24.3-25-39.1-38.9-14.7-13.8-17.3-9.3-34.1-19.7-3.5-2.2-6.7-8-6.6-12 .1-3.5 4.4-8.6 8-10 6.4-2.6 13.9-2.7 20.7-4.5 6.4-1.7 12.7-4.2 18.8-6.8.9-.4 1.4-3.9.7-5.1-6.4-10.1-1.4-24.1 14.6-24.1 17.5 0 35.1-.2 52.5-1.5 6.3-.5 12.2-4.6 18.3-7.1 13-5.4 26.1-4.5 39.7-2.3 13.4 2.2 22.7 11.3 34.1 16.6 2.6 1.2 5.6 2 8.4 2 10.9.2 22.1 1.6 32.7-.2 20.4-3.5 40.8-1.5 61.2-2.3 3.1-.1 6.3-1.2 9.4-1.2 8.8.1 13.6 7.5 12.1 16.2-1.9 11-7.3 19.8-14.3 28.1-5.3 6.3-9.6 13.5-14.9 21 5 2.4 9.4 4.7 14 6.5 8.6 3.3 10.4 9.5 3.5 15.8-6.6 6-14.1 11.1-21.2 16.5-13.7 10.3-27.8 20.3-41.3 30.9-11.3 8.8-22 18.4-32.8 27.5l13.9 15.5c8.9 4 28.1 20.6 15.5 43.2l-7.4 8.7c8.3 4.8 15.7 8.8 22.7 13.4 23.7 15.2 41.6 36.7 61.3 56.3 8.1 8.1 15 17.6 21.8 26.9 8.5 11.6 16.8 23.4 24.2 35.8s13.9 25.5 20.4 38.4c4.5 8.9 9.1 17.8 12.5 27.1 4.6 12.5 8 25.3 12 38 2.4 7.5 5.4 14.8 7.3 22.4l3 18.1c2.1 7.9.3 16.7 5.9 23.7.2.3.3.8.4 1.2.9 7.3 1.6 14.6 2.7 21.8 1.5 9.6 3.3 19.1 5 28.6l.1 1.3c.9 14.2 1.3 28.4 2.7 42.6.9 9 3.2 17.8 4.9 26.7.2 1 0 2.1.1 3.2.9 11.6-.2 23.9 3.2 34.7 2.7 8.6 3.2 16.7 3.1 25.2 0 9.8.2 19.7-1.4 29.3-1.9 11.6-4.7 23.3-11.1 33.4-4 6.3-10.9 8.3-17.9 8.6-8.8.5-17.6.8-26.3-.1-8-.8-15.8-3.6-23.7-4.6-7-.9-14.3-1.4-21.3-.6-9.9 1.1-19.6 3.3-29.4 5.5l-34.6 8.2c-7 1.5-14.1 2.5-21.2 3.2-12.2 1.1-24.5 2.2-36.7 2.6-15.6.4-31.3.7-46.9 0-25.4-1.2-50.7-3.7-76.1-4.8-18-.8-36.1-.2-54.1-.2h-5.1c-33 0-66-.4-99 .2-13.7.3-26-4.1-38.7-7.8-5.5-1.6-11.3-2.5-16.9-4-3.1-.8-6.3-2-9.2-3.5-11.6-5.9-18.1-16-22.5-27.8-.6-1.5-.3-3.4-.4-5.1-2.1-26.6 5.1-51.9 10.5-77.4 5.5-26 11.1-52 16.4-78.1 5.3-25.7 10-51.4 15.7-77 6.3-28.4 20.6-94.8 27.8-123 18.4-43.9 50.3-65.8 92.4-92.1 59.1-54.5 28.8-36.4-12.1-6.1 2.4-6.4-47.4 27.7-44.9 20.7-20.1 13.7-38 31-63 39.8-3.3-4.4-15.1-29.2-18.6-34.4-3.1-4.6-1.5-9.5 1-13.4 1.4-2.1 4.9-3.5 7.7-3.9 13.5-1.9 32.2-16.8 42.1-25.4 12.9-11.2 17.3-15.4 29.7-27.3 11.1-10.6 22.1-21.3 36.8-27.3l53.2-22.7c17.1-4.5-6.5-15.4-7-16.4l-2.1-18.5z"/></svg>