<svg xmlns="http://www.w3.org/2000/svg" viewBox="0 0 1000 1000" enable-background="new 0 0 1000 1000"><path fill="#fff" d="M683 811.5c71.3-45.9 121.6-120.5 145-201.5 4-14.5 7.6-29.5 9.5-44.2-24.7-13.8-52.3-22.9-80.4-25.9-31.5-3-64.6.1-92.8 15.4-8.4 3.5-15.6 9.6-24.3 11.9-9.2-.1-13.3-10.1-20.9-13.9-24.6-17.8-53.5-33.2-84.8-31-22.1.4-43.1 8.4-62.5 18.3-20.3 10.6-38.3 25-56.2 39-6.8 2.7-11.6-6-10.4-11.9-.1-21-12.7-39-20.2-58.1-9.9-20.5-19.1-41.7-21.3-64.7-3.8-25.4-7.8-51.3-5.7-77 3.2-7.9 13.3-5.2 19.6-3.7 14.5 2.1 29.9 3.1 44.3.2 29.3-10.2 56.8-24.2 85.2-36.7 1.9-14-.8-29.8 8.6-41.6 7.9-12.9 16.2-25.7 24.5-38.1 6-9.6 1.2-21.2-5.2-29.4-11.9-15.6-31.2-22-46.8-32.9-14.1-8-27.8-18-43.8-21.5-.8 0-1.6-.1-2.3 0-20.8 0-43.4-1.3-61.8 10.1-7.8 4.1-12.5 11.6-18 18.1-20.4 18.8-41.3 37.7-57 60.8-13 20.3-19.7 44.1-28 66.8-16.6 49.7-30.3 100.3-50 148.9-12.8 33.6-24.4 68.4-23.7 104.8-.8 30.1.6 60.4 8 89.6 5.7 26.3 15.4 51.4 22.2 77.3 2.7 13.2-1.1 29.1 10.2 39.1 9.9 10.4 25.8 7.5 37.7 14 16 5.5 34.2-.1 49.6 7.6 37.2 9.2 75.9 5.9 113.9 7.6 17.3 3 34 8.6 51.5 11.1 28.7 4.8 58 7.4 87.1 6.1 14.5-1.2 29-.8 60-4.1l39.2-10.5z"/></svg>