<svg xmlns="http://www.w3.org/2000/svg" viewBox="0 0 1000 1000" enable-background="new 0 0 1000 1000"><g fill="#fff"><path d="M118.7 847c20.4-23.1 39.4-44.3 58.1-65.8 21.1-24.2 41.9-48.7 62.8-73 3.3-3.9 6.7-7.8 10.5-11.1 14.1-12.1 14.2-30.3 20-46 12.5-34 23.3-68.6 36.4-102.3 20.7-53 47.5-103 80.6-149.3 13.5-18.9 28.2-37.1 43.3-54.7 12.2-14.2 25.2-27.8 38.8-40.6 28.8-27.3 60.5-50.7 94.7-70.9 33.3-19.7 68.5-35.1 105.2-47.1 34-11.1 68.9-18.5 104.3-23.6 36.8-5.3 73.6-7.4 111.8-6.3-5.3 13.3-11 25.9-15.4 38.9-11.8 34.8-23.6 69.6-34.3 104.8-14.3 47.1-26.4 95-41.9 141.8-7.2 21.7-20.2 41.4-30.5 62-56.9-25.5-114.4-35.5-176.4-32.6 40.7 29.9 80 58.8 120.1 88.2-14 8.4-27.2 17.1-41.2 24.4-28 14.8-56 29.5-84.6 43-46.7 22.1-95 40.3-144.7 54.4-32.4 9.2-65.3 16.4-98.2 24.1-9.2 2.1-18.9 2.9-28.3 3.5-8.9.6-13.7 6.4-18.4 12.7-23.3 31.3-46.5 62.6-70.2 93.6-2.9 3.8-8.5 6.6-13.3 8-26.2 7.5-52.6 14.5-79 21.6-2.6.6-5.6 1.2-10.2 2.3zm664.6-627l.6.9c-1.5.6-3 1.1-4.4 1.8-41 19.5-80.3 41.8-117 68.6-37.1 27-73 55.6-105.6 88-28.2 28-55.4 57.1-82.7 86-10.6 11.3-20.6 23.2-30.1 35.5-17.9 23-35.6 46.1-52.8 69.6-12.7 17.4-24.3 35.5-36.3 53.3-.7 1.1-.3 2.9-.6 6.2 24.6-29 47.1-56.7 70.9-83.2 26.1-29.1 52.7-58 80.5-85.5 40.9-40.6 82.9-80.3 124.8-119.9 18.5-17.4 37.3-34.6 57.3-50.2 31.3-24.5 63.6-47.5 95.4-71.1zM783.3 220c-31.8 23.6-64.1 46.7-95.3 71.1-20 15.6-38.8 32.8-57.3 50.2-42 39.6-83.9 79.2-124.8 119.9-27.8 27.6-54.3 56.4-80.5 85.5-23.8 26.5-46.3 54.2-70.9 83.2.3-3.3-.2-5.1.6-6.2 12-17.9 23.7-36 36.3-53.3 17.2-23.5 34.9-46.7 52.8-69.6 9.5-12.2 19.5-24.2 30.1-35.5 27.3-29 54.5-58 82.7-86 32.6-32.3 68.5-60.9 105.6-88 36.7-26.8 76-49.1 117-68.6 1.4-.7 2.9-1.2 4.4-1.8-.3-.3-.5-.6-.7-.9z"/></g></svg>