<svg xmlns="http://www.w3.org/2000/svg" viewBox="0 0 1000 1000" enable-background="new 0 0 1000 1000"><path fill="#fff" stroke="#000" stroke-miterlimit="10" d="M674.3 469.8c-8.4 0-15.1-6.8-15.1-15.1v-203c0-8.4 6.8-15.1 15.1-15.1h162.9c8.4 0 15.1 6.8 15.1 15.1v203c0 8.4-6.8 15.1-15.1 15.1h-162.9z"/><path fill="#fff" stroke="#000" stroke-miterlimit="10" d="M837.2 763.4c8.4 0 15.1-6.8 15.1-15.1v-203c0-8.4-6.8-15.1-15.1-15.1h-162.9c-8.4 0-15.1 6.8-15.1 15.1v203c0 8.4 6.8 15.1 15.1 15.1h162.9z"/><path fill="#fff" stroke="#000" stroke-miterlimit="10" d="M162.8 469.8c-8.4 0-15.1-6.8-15.1-15.1v-203c0-8.4 6.8-15.1 15.1-15.1h162.9c8.4 0 15.1 6.8 15.1 15.1v203c0 8.4-6.8 15.1-15.1 15.1h-162.9z"/><path fill="#fff" stroke="#000" stroke-miterlimit="10" d="M325.8 763.4c8.4 0 15.1-6.8 15.1-15.1v-203c0-8.4-6.8-15.1-15.1-15.1h-162.9c-8.4 0-15.1 6.8-15.1 15.1v203c0 8.4 6.8 15.1 15.1 15.1h162.9z"/><path fill="#fff" stroke="#000" stroke-miterlimit="10" d="M419 469.8c-8.4 0-15.1-6.8-15.1-15.1v-203c0-8.4 6.8-15.1 15.1-15.1h162.8c8.4 0 15.1 6.8 15.1 15.1v203c0 8.4-6.8 15.1-15.1 15.1h-162.8z"/><path fill="#fff" stroke="#000" stroke-miterlimit="10" d="M581.8 763.4c8.4 0 15.1-6.8 15.1-15.1v-203c0-8.4-6.8-15.1-15.1-15.1h-162.9c-8.4 0-15.1 6.8-15.1 15.1v203c0 8.4 6.8 15.1 15.1 15.1h162.9z"/></svg>