<svg xmlns="http://www.w3.org/2000/svg" viewBox="0 0 1000 1000" enable-background="new 0 0 1000 1000"><path fill="#fff" d="M96.2 806.8v-302.1c-9.1-.5-16.9-1-28.8-1.7 11.5-16.3 21.4-31.1 32.1-45.4 37.2-49.6 73.7-99.7 112.7-147.8 7.2-8.9 24.4-11.4 37.6-13.6 19.7-3.3 39.9-3.8 63.8-5.9-2.2-10.5-3.4-20.6-6.6-30-4-11.5 1.8-27.7 13.6-29.2 19.4-2.5 39-2.8 60.8-4.2v52.8c41-4.9 80-9.5 123.5-14.7-1.3-6.3-2-14-4.6-20.9-6.1-16.4.4-31.2 17.5-33.7 20.1-2.9 40.6-3.4 63.2-5.1v46c25-3.2 47.9-5.6 70.7-9.2 40.1-6.2 80-13.6 120.2-19 5.6-.8 15.1 5.3 18.1 10.7 31.6 58.7 62.1 117.9 93.1 176.9 10.8 20.5 22.1 40.7 34.2 62.9-8.4 1-14.2 1.7-20.8 2.4-.4 3.1-1.3 6.3-1.3 9.6-1.4 83.3-3.2 166.6-3.7 249.9-.1 14.4-4.8 20.1-17.8 23.9-62.3 18.3-123.9 39.6-186.8 55.3-27.7 6.9-58.2 3.1-87.4 3.9-6 .2-12.1-.9-18.2-.9-56.1-.1-112.1 0-169.9 0v-206.7h-72.8v202.5c-80-2.2-160.5-4.4-242.4-6.7z"/></svg>