<?xml version="1.0" encoding="utf-8"?>
<!-- Generator: Adobe Illustrator 17.1.0, SVG Export Plug-In . SVG Version: 6.00 Build 0)  -->
<!DOCTYPE svg PUBLIC "-//W3C//DTD SVG 1.1//EN" "http://www.w3.org/Graphics/SVG/1.1/DTD/svg11.dtd">
<svg version="1.1" id="Layer_1" xmlns="http://www.w3.org/2000/svg" xmlns:xlink="http://www.w3.org/1999/xlink" x="0px" y="0px"
	 viewBox="0 0 1000 1000" enable-background="new 0 0 1000 1000" xml:space="preserve">
<path fill="#FFFFFF" stroke="#000000" stroke-miterlimit="10" d="M311.6,635.3l459.8-486.6L872,125.2l-21.8,102.4L363.6,687.3
	L311.6,635.3z M359.2,704.7l-64.1-64.1L143.3,792.4l64.1,64.1L359.2,704.7z M408.1,718.4L277.2,587.5l-45.3,45.3l130.9,130.9
	L408.1,718.4z M219.7,783.1c-26.7-26.7-63.2-33.5-81.5-15.2c-18.3,18.3-11.5,54.8,15.2,81.5c26.7,26.7,63.2,33.5,81.5,15.2
	C253.2,846.2,246.4,809.8,219.7,783.1z M635.3,688.4L148.7,228.7L125.2,128l102.4,21.8l459.8,486.6L635.3,688.4z M704.7,640.8
	l-64.1,64.1l151.7,151.7l64.1-64.1L704.7,640.8z M718.4,591.9L587.5,722.8l45.3,45.3l130.9-130.9L718.4,591.9z M783.1,780.3
	c-26.7,26.7-33.5,63.2-15.2,81.5c18.3,18.3,54.8,11.5,81.5-15.2c26.7-26.7,33.5-63.2,15.2-81.5C846.2,746.8,809.8,753.6,783.1,780.3
	z"/>
</svg>
