<?xml version="1.0" encoding="utf-8"?>
<!-- Generator: Adobe Illustrator 17.1.0, SVG Export Plug-In . SVG Version: 6.00 Build 0)  -->
<!DOCTYPE svg PUBLIC "-//W3C//DTD SVG 1.1//EN" "http://www.w3.org/Graphics/SVG/1.1/DTD/svg11.dtd">
<svg version="1.1" id="Layer_1" xmlns="http://www.w3.org/2000/svg" xmlns:xlink="http://www.w3.org/1999/xlink" x="0px" y="0px"
	 viewBox="0 0 1000 1000" enable-background="new 0 0 1000 1000" xml:space="preserve">
<g>
	<path fill="#FFFFFF" d="M351.5,597.3c-53.5,44.2-125.9,37.5-169.8-7.4c-50.2-51.3-47.4-129-0.3-176.8c45.6-46.2,119-50.7,169.9-7.4
		c38.4-19.1,76.9-38.2,115.4-57.4c44.9-22.4,89.6-45,134.5-67.3c4.4-2.2,5.6-4.5,5.7-9.2c0.1-52.5,24.6-90.9,70.9-113.7
		c40.1-19.7,80.8-17.5,119.7,5.8c30.9,18.5,50.3,45.7,57.4,80.2c7.5,36.7,1.2,71.5-22.4,102.2c-19.5,25.4-44.7,42.3-75.9,48.1
		c-33,6.1-64.9,1.4-92.6-19.2c-9.8-7.3-17.3-7.7-28-1.6c-20.8,11.8-42.8,21.7-64.3,32.5c-44.1,22-88.1,44-132.1,66.1
		c-12.6,6.3-25.1,12.9-38,18.8c-5.7,2.6-5,6.8-5.2,11.4c-0.2,4.1,0.7,6.6,5,8.8c83.4,41.5,166.7,83.3,250.5,125.2
		c16.2-14.3,35.2-24,56.3-27.7c35.1-6.2,68.1,0.1,97.5,21.5c27.6,20.2,44.7,46.9,50.2,80.8c5.9,36.2-1.8,69.4-24.1,98.2
		c-19.9,25.7-46.2,41.9-78.9,46.8c-26.6,4-52.2,1.4-76.3-11c-36.3-18.7-58.8-48.5-67.9-88.2c-1.9-8.3-1.7-17.3-1.7-25.9
		c0-4.5-1.6-6.5-5.5-8.5C518.2,680.8,435.1,639.2,351.5,597.3z"/>
</g>
</svg>
