<?xml version="1.0" encoding="utf-8"?>
<!-- Generator: Adobe Illustrator 17.1.0, SVG Export Plug-In . SVG Version: 6.00 Build 0)  -->
<!DOCTYPE svg PUBLIC "-//W3C//DTD SVG 1.1//EN" "http://www.w3.org/Graphics/SVG/1.1/DTD/svg11.dtd">
<svg version="1.1" id="Layer_1" xmlns="http://www.w3.org/2000/svg" xmlns:xlink="http://www.w3.org/1999/xlink" x="0px" y="0px"
	 viewBox="0 0 1000 1000" enable-background="new 0 0 1000 1000" xml:space="preserve">
<g>
	<path fill="#FFFFFF" d="M324.2,504.6c44.9,38.6,96.4,58.9,154,64.9c0,60.9,0,121.4,0,183.8c-11.1-3.5-21.7-6.3-31.8-10.2
		c-24.2-9.3-44.7-24.2-63.9-41.5c-31.3-28.2-55.4-61.8-76.3-98c-19.5-33.8-35.4-69.3-46.2-106.9c-6.6-23-11.1-46.7-16.4-70
		c-5.3-23.5-4.7-47.4-3.4-71.1c1.5-26.5,8-52.3,18.3-77c9.5-23,21.6-44.5,37.1-63.8c15.2-19,32.7-35.9,52.5-50.1
		c29.2-20.9,61.4-35.1,96.4-43.1c25.4-5.8,51.1-7.1,76.9-5.5c29.5,1.9,57.9,9.4,85,21.3c19.7,8.6,38.3,19.4,54.9,33.1
		c8.4,6.9,17.5,13.3,24.7,21.3c12.6,14.2,25.1,28.8,35.6,44.6c13,19.5,23.6,40.7,29.3,63.6c4.1,16.1,7.9,32.5,9.7,49
		c1.9,17.3,2.5,34.9,1.2,52.2c-1.8,26-7.1,51.7-14.1,76.9c-8.5,30.5-19.6,59.9-32.9,88.6c-15.3,32.9-33.8,63.8-55.9,92.5
		c-22.6,29.3-49,54.9-81.3,73.6c-15.4,8.9-32,15.2-49.5,18.9c-1.3,0.3-2.8,0-4.5,0c0-60.8,0-121.1,0-182.2
		c57.4-6,109.1-26.2,153-64.6C559.5,545.8,442.4,540,324.2,504.6z"/>
	<path fill="#FFFFFF" d="M878.1,869c-251.8,0-502.8,0-754.4,0c0-2.3,0-4.3,0-6.4c0-60.2,0.1-120.3-0.1-180.5c0-5.2,1.9-7.4,6.3-9.7
		c32.3-16.7,65.6-31,100.3-41.9c15.1-4.7,30.3-9.1,45.3-13.5c9.8,15.6,18.4,31.4,29,45.7c13.6,18.5,28.4,36,43.2,53.6
		c16.3,19.3,35.8,34.9,57,48.4c22.2,14.2,46,24.1,72.2,28.5c33.2,5.6,64.3-0.5,94.3-14.1c25.1-11.3,46.8-27.4,66.9-46.1
		c31.2-29,56.4-62.6,78-99.1c3.2-5.4,6.5-10.8,10.2-16.9c11.2,3.2,22.7,6.4,34.1,9.8c39.2,11.6,76.8,27.2,113,46.1
		c3.1,1.6,5.2,2.9,5.2,7.1c-0.2,61.8-0.1,123.7-0.1,185.5C878.3,866.7,878.2,867.7,878.1,869z"/>
</g>
</svg>
