<?xml version="1.0" encoding="utf-8"?>
<!-- Generator: Adobe Illustrator 17.1.0, SVG Export Plug-In . SVG Version: 6.00 Build 0)  -->
<!DOCTYPE svg PUBLIC "-//W3C//DTD SVG 1.1//EN" "http://www.w3.org/Graphics/SVG/1.1/DTD/svg11.dtd">
<svg version="1.1" id="Layer_1" xmlns="http://www.w3.org/2000/svg" xmlns:xlink="http://www.w3.org/1999/xlink" x="0px" y="0px"
	 viewBox="0 0 1000 1000" enable-background="new 0 0 1000 1000" xml:space="preserve">
<g>
	<path fill="#FFFFFF" d="M389.8,273c0,0,4.5-22.7,40.2-13.3c0.3,0.1-11.7-2.1-11.4-2.1l-1.6-32.8c-8.5-18.7-24.3-25-39.1-38.9
		c-14.7-13.8-17.3-9.3-34.1-19.7c-3.5-2.2-6.7-8-6.6-12c0.1-3.5,4.4-8.6,8-10c6.4-2.6,13.9-2.7,20.7-4.5c6.4-1.7,12.7-4.2,18.8-6.8
		c0.9-0.4,1.4-3.9,0.7-5.1c-6.4-10.1-1.4-24.1,14.6-24.1c17.5,0,35.1-0.2,52.5-1.5c6.3-0.5,12.2-4.6,18.3-7.1
		c13-5.4,26.1-4.5,39.7-2.3c13.4,2.2,22.7,11.3,34.1,16.6c2.6,1.2,5.6,2,8.4,2c10.9,0.2,22.1,1.6,32.7-0.2
		c20.4-3.5,40.8-1.5,61.2-2.3c3.1-0.1,6.3-1.2,9.4-1.2c8.8,0.1,13.6,7.5,12.1,16.2c-1.9,11-7.3,19.8-14.3,28.1
		c-5.3,6.3-9.6,13.5-14.9,21c5,2.4,9.4,4.7,14,6.5c8.6,3.3,10.4,9.5,3.5,15.8c-6.6,6-14.1,11.1-21.2,16.5
		c-13.7,10.3-27.8,20.3-41.3,30.9c-11.3,8.8-22,18.4-32.8,27.5l13.9,15.5c8.9,4,28.1,20.6,15.5,43.2l-7.4,8.7
		c8.3,4.8,15.7,8.8,22.7,13.4c23.7,15.2,41.6,36.7,61.3,56.3c8.1,8.1,15,17.6,21.8,26.9c8.5,11.6,16.8,23.4,24.2,35.8
		s13.9,25.5,20.4,38.4c4.5,8.9,9.1,17.8,12.5,27.1c4.6,12.5,8,25.3,12,38c2.4,7.5,5.4,14.8,7.3,22.4c1.5,5.9,1.5,12.2,3,18.1
		c2.1,7.9,0.3,16.7,5.9,23.7c0.2,0.3,0.3,0.8,0.4,1.2c0.9,7.3,1.6,14.6,2.7,21.8c1.5,9.6,3.3,19.1,5,28.6c0.1,0.4,0,0.9,0.1,1.3
		c0.9,14.2,1.3,28.4,2.7,42.6c0.9,9,3.2,17.8,4.9,26.7c0.2,1,0,2.1,0.1,3.2c0.9,11.6-0.2,23.9,3.2,34.7c2.7,8.6,3.2,16.7,3.1,25.2
		c0,9.8,0.2,19.7-1.4,29.3c-1.9,11.6-4.7,23.3-11.1,33.4c-4,6.3-10.9,8.3-17.9,8.6c-8.8,0.5-17.6,0.8-26.3-0.1
		c-8-0.8-15.8-3.6-23.7-4.6c-7-0.9-14.3-1.4-21.3-0.6c-9.9,1.1-19.6,3.3-29.4,5.5c-11.6,2.5-23,5.7-34.6,8.2
		c-7,1.5-14.1,2.5-21.2,3.2c-12.2,1.1-24.5,2.2-36.7,2.6c-15.6,0.4-31.3,0.7-46.9,0c-25.4-1.2-50.7-3.7-76.1-4.8
		c-18-0.8-36.1-0.2-54.1-0.2c-1.7,0-3.4,0-5.1,0c-33,0-66-0.4-99,0.2c-13.7,0.3-26-4.1-38.7-7.8c-5.5-1.6-11.3-2.5-16.9-4
		c-3.1-0.8-6.3-2-9.2-3.5c-11.6-5.9-18.1-16-22.5-27.8c-0.6-1.5-0.3-3.4-0.4-5.1c-2.1-26.6,5.1-51.9,10.5-77.4
		c5.5-26,11.1-52,16.4-78.1c5.3-25.7,10-51.4,15.7-77c6.3-28.4,20.6-94.8,27.8-123c18.4-43.9,50.3-65.8,92.4-92.1
		c59.1-54.5,28.8-36.4-12.1-6.1c2.4-6.4-47.4,27.7-44.9,20.7c-20.1,13.7-38,31-63,39.8c-3.3-4.4-15.1-29.2-18.6-34.4
		c-3.1-4.6-1.5-9.5,1-13.4c1.4-2.1,4.9-3.5,7.7-3.9c13.5-1.9,32.2-16.8,42.1-25.4c12.9-11.2,17.3-15.4,29.7-27.3
		c11.1-10.6,22.1-21.3,36.8-27.3l53.2-22.7c17.1-4.5-6.5-15.4-7-16.4L389.8,273z"/>
</g>
</svg>
