<?xml version="1.0" encoding="utf-8"?>
<!-- Generator: Adobe Illustrator 17.1.0, SVG Export Plug-In . SVG Version: 6.00 Build 0)  -->
<!DOCTYPE svg PUBLIC "-//W3C//DTD SVG 1.1//EN" "http://www.w3.org/Graphics/SVG/1.1/DTD/svg11.dtd">
<svg version="1.1" id="Layer_1" xmlns="http://www.w3.org/2000/svg" xmlns:xlink="http://www.w3.org/1999/xlink" x="0px" y="0px"
	 viewBox="0 0 1000 1000" enable-background="new 0 0 1000 1000" xml:space="preserve">
<g>
	<path fill="#FFFFFF" d="M118.7,847c20.4-23.1,39.4-44.3,58.1-65.8c21.1-24.2,41.9-48.7,62.8-73c3.3-3.9,6.7-7.8,10.5-11.1
		c14.1-12.1,14.2-30.3,20-46c12.5-34,23.3-68.6,36.4-102.3c20.7-53,47.5-103,80.6-149.3c13.5-18.9,28.2-37.1,43.3-54.7
		c12.2-14.2,25.2-27.8,38.8-40.6c28.8-27.3,60.5-50.7,94.7-70.9c33.3-19.7,68.5-35.1,105.2-47.1c34-11.1,68.9-18.5,104.3-23.6
		c36.8-5.3,73.6-7.4,111.8-6.3c-5.3,13.3-11,25.9-15.4,38.9c-11.8,34.8-23.6,69.6-34.3,104.8c-14.3,47.1-26.4,95-41.9,141.8
		c-7.2,21.7-20.2,41.4-30.5,62c-56.9-25.5-114.4-35.5-176.4-32.6c40.7,29.9,80,58.8,120.1,88.2c-14,8.4-27.2,17.1-41.2,24.4
		c-28,14.8-56,29.5-84.6,43c-46.7,22.1-95,40.3-144.7,54.4c-32.4,9.2-65.3,16.4-98.2,24.1c-9.2,2.1-18.9,2.9-28.3,3.5
		c-8.9,0.6-13.7,6.4-18.4,12.7c-23.3,31.3-46.5,62.6-70.2,93.6c-2.9,3.8-8.5,6.6-13.3,8c-26.2,7.5-52.6,14.5-79,21.6
		C126.3,845.3,123.3,845.9,118.7,847z M783.3,220c0.2,0.3,0.4,0.6,0.6,0.9c-1.5,0.6-3,1.1-4.4,1.8c-41,19.5-80.3,41.8-117,68.6
		c-37.1,27-73,55.6-105.6,88c-28.2,28-55.4,57.1-82.7,86c-10.6,11.3-20.6,23.2-30.1,35.5c-17.9,23-35.6,46.1-52.8,69.6
		c-12.7,17.4-24.3,35.5-36.3,53.3c-0.7,1.1-0.3,2.9-0.6,6.2c24.6-29,47.1-56.7,70.9-83.2c26.1-29.1,52.7-58,80.5-85.5
		c40.9-40.6,82.9-80.3,124.8-119.9c18.5-17.4,37.3-34.6,57.3-50.2C719.2,266.6,751.5,243.6,783.3,220z"/>
	<path fill="#FFFFFF" d="M783.3,220c-31.8,23.6-64.1,46.7-95.3,71.1c-20,15.6-38.8,32.8-57.3,50.2c-42,39.6-83.9,79.2-124.8,119.9
		c-27.8,27.6-54.3,56.4-80.5,85.5c-23.8,26.5-46.3,54.2-70.9,83.2c0.3-3.3-0.2-5.1,0.6-6.2c12-17.9,23.7-36,36.3-53.3
		c17.2-23.5,34.9-46.7,52.8-69.6c9.5-12.2,19.5-24.2,30.1-35.5c27.3-29,54.5-58,82.7-86c32.6-32.3,68.5-60.9,105.6-88
		c36.7-26.8,76-49.1,117-68.6c1.4-0.7,2.9-1.2,4.4-1.8C783.7,220.6,783.5,220.3,783.3,220z"/>
</g>
</svg>
