<?xml version="1.0" encoding="utf-8"?>
<!-- Generator: Adobe Illustrator 17.1.0, SVG Export Plug-In . SVG Version: 6.00 Build 0)  -->
<!DOCTYPE svg PUBLIC "-//W3C//DTD SVG 1.1//EN" "http://www.w3.org/Graphics/SVG/1.1/DTD/svg11.dtd">
<svg version="1.1" id="Layer_1" xmlns="http://www.w3.org/2000/svg" xmlns:xlink="http://www.w3.org/1999/xlink" x="0px" y="0px"
	 viewBox="0 0 1000 1000" enable-background="new 0 0 1000 1000" xml:space="preserve">
<g>
	<path fill="#FFFFFF" d="M301.7,272.7c11.3,15.4,18.8,31.6,22.7,49.4c6,27.7-2,53.4-11.3,79c-5.4,14.9-10.7,29.8-11.4,45.8
		c-0.8,18.4,7.6,33.2,18.1,47.5c14,19.2,33.3,32.1,52,45.8c12.8,9.4,18.9,22.3,20.9,37.4c1.1,8,1.4,16.2,1.2,24.2
		c-0.6,21.6-8.9,39.6-26.1,53.2c-9.7,7.6-19.3,15.5-28.4,23.8c-13.1,12-16.2,26.9-12,44c4.2,16.9,13.7,30.7,24,44.3
		c2.8,3.7,5.7,7.2,8.9,11.3c1.1-9.2,1.6-17.7,3.1-26.1c2.9-16.1,5.9-32.1,9.7-48c7.6-31.9,23.2-59.8,43.9-84.9
		c12-14.6,24.5-28.8,36.5-43.4c14.9-18.1,29.6-36.5,36.3-59.7c5.3-18.5,5.3-37.1-1.7-55c-5.8-14.8-17.2-25.3-31.2-32.4
		c-17.4-8.8-35.4-16.5-52.7-25.4c-16.4-8.4-30.9-19.2-39.2-36.4c-4.8-10-7.1-20.6-7.5-31.8c-0.8-22.8,4.1-44.5,10.4-66.1
		c10.1-34.4,26.4-65.8,46.9-95c12.4-17.7,25.8-34.6,38.2-52.3c14.3-20.4,21-43.3,18.4-68.3c-0.7-6.9-2.6-13.7-3.2-21.1
		c4.5,8.1,10,15.8,13.4,24.3c5.3,13,10.1,26.3,13.6,39.8c5.3,20.3,2.3,40.4-5,59.9c-6.1,16.1-12.8,32-18.8,48.2
		c-5.8,15.6-4.1,30.8,4.6,45c6.4,10.4,17.3,14.3,28.4,17.3c15.2,4,30.8,6.5,45.2,13.5c17.1,8.4,29.4,21.4,38.6,37.8
		c9.8,17.5,16.5,36.2,19.7,55.9c3.5,21.1,0.4,41.7-7.4,61.5c-8.8,22.4-22.2,42-37.6,60.4c-17.1,20.3-34.3,40.6-50.9,61.3
		c-9.6,12-17.5,25.3-19.7,40.7c-2.5,17.2,2.1,33.1,12.7,46.9c11.3,14.7,27.5,22.3,43.8,29.8c13.7,6.3,27.7,12.5,38.2,23.9
		c8.2,8.9,12.6,19.5,13.1,31.8c1,24.4-2.6,48-9.5,71.6c6.2-6.7,12.9-13,18.6-20.1c7.9-9.8,15.6-20,22.6-30.5
		c7.4-11.3,12.7-23.7,13.7-37.3c1.2-17.1-7.8-29.2-20.5-39.6c-13.7-11.1-29.7-20.2-38.1-36.6c-4.2-8.3-8.1-17.4-9.2-26.5
		c-1.6-12.2-1.2-24.8,2.3-37c4.5-15.8,14.8-26.6,28.8-34.6c18-10.3,36.3-20.2,50.6-35.7c8.6-9.4,16.7-19.2,21.5-31.2
		c6-15.3,3.9-30.5-2.2-45.1c-7.9-19-17-37.6-24.5-56.8c-3.4-8.8-4.7-18.7-6.1-28.1c-2.7-17.5,2.5-33.9,9.5-49.6
		c2.9-6.5,7.1-12.4,11.3-19.5c-1,12.2-2.8,22.9-2.6,33.6c0.4,20.6,6.7,39.3,19.4,55.9c13.3,17.3,30.5,30.1,47.4,43.5
		c16.4,13,33.6,25.1,45.2,43.2c11.5,18,15.1,37.3,12.1,58.4c-1.5,10.2-2.3,20.6-9.3,28.7c-4.4,5.1-9.7,9.8-15.5,13.2
		c-13.5,8-26.7,16.3-33.1,31.2c-5.1,11.8-9.4,24.1-12.7,36.6c-6.9,25.9,2.8,47.6,17.7,68.2c6,8.3,10.4,18,13.8,27.7
		c4.9,14,1.8,28.3-1.4,42.4c-5.1,22.9-16.5,41.9-34.4,57c-13,10.9-27.5,19.4-43.1,26.5c-22.1,10-44.9,17.6-68.5,22.7
		c-15.8,3.4-31.7,6.1-47.6,8.9c-20.9,3.6-41.9,6.7-63.2,5.6c-16.1-0.9-32.1-2.3-48.1-4.5c-21.2-2.9-42.3-6.3-63.3-10.3
		c-23.7-4.5-46.8-11.4-69.3-20.3c-16.7-6.6-32.4-14.7-47.4-24.6c-23.4-15.4-37.9-36.5-44.1-63.6c-3.8-16.4-6.2-33,1.3-48.8
		c4.8-10.2,11.1-19.7,17.3-29.1c11.6-17.3,16-35.8,12.2-56.5c-3.6-19.7-9.3-38.6-18.4-56.4c-3.8-7.4-9.6-14-12.6-21.6
		c-3.3-8.5-5.4-17.7-6.5-26.8c-1.3-10.1-1.4-20.3-1.3-30.5c0.2-22.8,7.6-43.2,23.2-60c13.2-14.1,26.9-27.7,40.3-41.6
		c15.8-16.5,26-36,28.4-58.7c1.7-15.9,1.2-32-3.1-47.7C301.5,275.5,301.7,274.5,301.7,272.7z"/>
</g>
</svg>
