<?xml version="1.0" encoding="utf-8"?>
<!-- Generator: Adobe Illustrator 17.1.0, SVG Export Plug-In . SVG Version: 6.00 Build 0)  -->
<!DOCTYPE svg PUBLIC "-//W3C//DTD SVG 1.1//EN" "http://www.w3.org/Graphics/SVG/1.1/DTD/svg11.dtd">
<svg version="1.1" id="Layer_1" xmlns="http://www.w3.org/2000/svg" xmlns:xlink="http://www.w3.org/1999/xlink" x="0px" y="0px"
	 viewBox="0 0 1000 1000" enable-background="new 0 0 1000 1000" xml:space="preserve">
<g id="VB9MHm.tif">
	<g>
		<path fill="#FFFFFF" d="M324.3,894c-0.9-0.1-1.9-0.2-2.8-0.2c-12.5,0-25-0.1-37.4,0c-15.3,0.1-30.7,0.3-46,0.5
			c-4.5,0-9,0.6-13.3-0.3c-6.1-1.2-12-3.4-17.8-5.4c-5.2-1.8-10.4-3.7-15.4-6.1c-4.2-2-8.4-4.1-11.8-7.2c-6.8-6-11.8-13.4-11.1-23
			c0.2-3.2,1.9-6.3,3.3-9.3c3.7-7.7,7.4-15.5,11.5-23c5.9-10.9,12.2-21.6,18.4-32.3c4.5-7.8,9.1-15.6,14-23.1c3.4-5.2,8-9.7,11.3-15
			c8.7-14,17.1-28.3,25.4-42.5c5.8-9.9,12.3-19.5,16.7-30c4-9.5,7.6-20.6-1.2-29.5c-5.6-5.7-13.1-9.5-19.7-14.1
			c-4.8-3.3-9.5-6.7-14.3-10c0.2-1.4,0.4-2.7,0.6-4.1c9.9-2.8,19.7-6,29.8-8.1c7.9-1.7,16.1-2.7,24.1-2.9
			c17.4-0.4,34.9-0.1,52.3-0.1c7.7,0,15.3,0,23.7,0c1-8.4,2.2-16.7,3-25.1c1.3-14.6,2.1-29.3,3.6-43.9c0.7-6.6,3.3-13,4.3-19.5
			c1-6.8,0.6-13.8,1.9-20.6c1.9-10.1,5-20,7.3-30c1.5-6.3,2-12.9,3.7-19.1c3.1-11.2,6.7-22.2,10.1-33.2c3.1-9.9,5.9-19.8,9.5-29.5
			c3.6-9.8,8-19.3,12.1-28.9c1.5-3.5,3.2-6.9,5.1-10.3c0.5-1,1.8-1.5,2.7-2.3c0.6,1,1.8,2,1.7,2.9c-0.2,6.5-0.8,12.9-1,19.4
			c-0.1,2.3,0.7,4.6,1.1,7c1.5-0.3,3.1-0.2,4.4-0.9c0.9-0.4,1.5-1.6,2.1-2.6c4.7-7.5,9.7-14.8,13.8-22.6c6.6-12.3,12.3-25,18.9-37.2
			c5.5-10.1,11.8-19.8,17.4-29.9c4.1-7.4,7.4-15.3,11.4-22.7c5.9-10.7,12.2-21.2,18.4-31.7c2-3.4,4.1-6.9,6.4-10.1
			c0.7-1,2.1-1.5,5.6-3.9c-5.8,18.2-10.7,33.7-15.6,49.3c0.4,0.4,0.9,0.7,1.3,1.1c2.3-2.6,5-4.9,6.8-7.9c4.3-7.2,8.3-14.6,12.2-22
			c2.7-5.1,4.7-10.4,7.5-15.4c1.9-3.5,4.6-6.5,7.1-9.7c4-5.3,8.2-10.6,12.2-16c4.2-5.5,7.9-11.6,12.7-16.5
			c6.3-6.4,13.1-12.4,20.3-17.7c10.6-7.8,21.5-15.3,32.8-22.1c14.4-8.6,29.1-16.9,44.2-24.4c9.1-4.5,19-7.6,28.8-10.6
			c10.2-3.1,20.5-6,31-7.7c8.8-1.5,17.8-1.2,26.8-1.6c5.6-0.2,11.2-0.5,16.7,0.1c10.1,1.1,20.4,2.2,30.3,4.7
			c6.4,1.6,12.1,5.6,18.1,8.8c4.3,2.3,4.6,13.5,1.1,16.8c-7.1,6.6-13.5,13.9-20.7,20.4c-5.2,4.7-11.3,8.5-17,12.7
			c-12.4,9.2-24.6,18.4-37.1,27.5c-6.7,4.9-13.7,9.4-20.6,14c-11.9,7.9-23.8,15.9-35.9,23.6c-7.1,4.5-14.7,8.2-21.7,12.8
			c-5,3.3-9.4,7.6-14.3,11c-5.3,3.8-11.2,6.8-16.5,10.7c-6,4.5-11.6,9.7-18.5,15.5c6-2.2,10.9-3.8,15.6-5.7
			c8.1-3.1,16.1-6.3,24.1-9.4c0.6-0.2,2.3,0.9,2.3,1.3c-0.1,1.7-0.1,3.8-1.1,5.1c-1.9,2.4-4.6,4.3-6.7,6.6c-1.8,1.9-3,4.3-4.9,6.1
			c-8.6,8.2-17.5,16.1-26.1,24.3c-2.9,2.8-5.3,6.2-8.2,9.1c-4.9,4.9-10.1,9.4-14.9,14.4c-12.8,13.1-25.5,26.3-38.3,39.5
			c-2.2,2.3-4.4,4.7-5.3,8.2c11-5.9,21.9-11.8,32.9-17.7c0.8,0.9,1.6,1.8,2.4,2.7c-1.5,2.1-3.1,4.2-4.6,6.3
			c-5,6.9-9.6,14.2-15.1,20.7c-8.4,10.2-17.4,20.1-26.2,30c-7.3,8.2-14.8,16.2-22,24.4c-6.4,7.4-12.7,14.8-18.8,22.5
			c-4.2,5.3-7.9,11-11,17.5c4.1-2.2,8.2-4.3,12.3-6.5c4.2-2.4,8.3-4.9,12.5-7.3c0.8,1.7,2.8,4.1,2.3,5
			c-6.5,11.2-13.3,22.2-20.3,33.1c-5.9,9.3-11.9,18.6-18.2,27.5c-7.7,10.9-15.8,21.5-23.8,32.1c-4,5.3-8.3,10.4-12.3,15.7
			c-6,8-11.7,16-17.6,24c-1.7,2.3-3.5,4.4-5.5,7c9.5,0,18.9-0.1,28.3,0c13.7,0.3,27.5-0.4,40.9,1.6c9.6,1.4,18.8,6.4,28.1,10
			c0.9,0.4,2,2.9,1.7,3.4c-1.9,2.7-3.9,5.9-6.6,7.3c-10.4,5.1-21.2,10-27.2,20.5c-4.5,7.9-3.5,16.2,0.8,24.4
			c3.9,7.5,6.6,15.6,10.3,23.3c1.8,3.7,4.6,6.8,6.7,10.3c3.5,6,6.7,12.1,10.3,18.1c5,8.3,10,16.6,15.3,24.8
			c9.5,14.7,19.5,29.2,28.8,44c5,7.9,9.1,16.3,13.6,24.5c3.6,6.6,6.6,13.4,10.7,19.7c5.1,7.9,5.5,16.3,2.8,24.4
			c-1.4,4.3-5.6,8.3-9.4,11.2c-5.1,3.9-10.8,7.4-16.8,9.8c-7.7,3.1-15.8,6.1-24,6.9c-13.1,1.4-26.4,1.2-39.6,1.4
			c-14.8,0.2-29.6,0-44.4,0.1c-13.2,0.1-26.3,0.2-39.5,0.6c-4.5,0.1-8.9,1.5-13.3,1.5c-4.6,0-9.2-1.4-13.8-1.5
			c-8.9-0.2-17.8,0-26.6,0c-6.5,0-12.9-0.1-19.4-0.1c-5.7,0-11.4,0-17.1,0C324.3,893.8,324.3,893.9,324.3,894z M399.2,612.1
			c0.2-2.7,0.3-5.3,0.7-7.9c1.7-10.7,3.5-21.5,5.4-32.2c1.2-6.5,2.3-13.1,4.1-19.4c2.2-7.7,5.3-15.2,7.7-22.9
			c3.3-10.2,5.9-20.5,9.5-30.6c4.1-11.6,8.5-23.1,13.7-34.2c7.9-16.9,16.1-33.7,24.9-50.2c6.1-11.6,13.3-22.6,19.9-33.9
			c4.8-8.2,9-16.7,14.2-24.6c8.4-12.7,17.4-24.8,26.1-37.3c3-4.3,5.2-9.1,8.3-13.2c6.3-8.4,12.9-16.4,19.4-24.7
			c6.2-7.8,12.1-15.8,18.4-23.5c9.4-11.5,18.9-22.8,28.6-34.1c7.9-9.2,16-18.2,23.8-27.4c3.7-4.3,6.5-9.4,10.2-13.6
			c6.6-7.5,13.6-14.5,20.4-21.8c-1.1,0.6-2.6,1-3.5,2c-9,8.9-17.9,17.9-26.8,27c-10.8,11.1-21.4,22.3-32,33.6
			c-7,7.5-14,15-20.8,22.6c-7,8-14,16-20.5,24.3c-14.4,18.4-28.7,36.9-42.7,55.6c-6.5,8.8-12.2,18.2-18.3,27.3
			c-5.4,8.1-11.4,15.9-16.2,24.3c-7,12.2-13.2,24.8-19.7,37.3c-6.1,11.8-12.5,23.5-18.3,35.4c-3.5,7-6.2,14.4-9.2,21.6
			c-2.4,5.7-5,11.4-7,17.2c-2.6,7.8-4.7,15.7-7.2,23.6c-4.1,13.3-8.5,26.6-12.4,39.9c-1.4,4.8-1.6,10-2.8,15
			c-1.6,6.7-3.9,13.3-5.3,20c-1.2,6-0.9,12.4-2.6,18.3c-1.6,5.8-2.1,9,5.4,7.3C396.1,612.5,397.6,612.3,399.2,612.1z"/>
	</g>
</g>
</svg>
