<?xml version="1.0" encoding="utf-8"?>
<!-- Generator: Adobe Illustrator 17.1.0, SVG Export Plug-In . SVG Version: 6.00 Build 0)  -->
<!DOCTYPE svg PUBLIC "-//W3C//DTD SVG 1.1//EN" "http://www.w3.org/Graphics/SVG/1.1/DTD/svg11.dtd">
<svg version="1.1" id="Layer_1" xmlns="http://www.w3.org/2000/svg" xmlns:xlink="http://www.w3.org/1999/xlink" x="0px" y="0px"
	 viewBox="0 0 1000 1000" enable-background="new 0 0 1000 1000" xml:space="preserve">
<path fill="#FFFFFF" stroke="#000000" stroke-miterlimit="10" d="M469.9,325.7c0,8.4-6.8,15.1-15.1,15.1h-203
	c-8.4,0-15.1-6.8-15.1-15.1V162.8c0-8.4,6.8-15.1,15.1-15.1h203c8.4,0,15.1,6.8,15.1,15.1V325.7z"/>
<path fill="#FFFFFF" stroke="#000000" stroke-miterlimit="10" d="M763.4,162.8c0-8.4-6.8-15.1-15.1-15.1h-203
	c-8.4,0-15.1,6.8-15.1,15.1v162.9c0,8.4,6.8,15.1,15.1,15.1h203c8.4,0,15.1-6.8,15.1-15.1V162.8z"/>
<path fill="#FFFFFF" stroke="#000000" stroke-miterlimit="10" d="M469.9,837.2c0,8.4-6.8,15.1-15.1,15.1h-203
	c-8.4,0-15.1-6.8-15.1-15.1V674.3c0-8.4,6.8-15.1,15.1-15.1h203c8.4,0,15.1,6.8,15.1,15.1V837.2z"/>
<path fill="#FFFFFF" stroke="#000000" stroke-miterlimit="10" d="M763.4,674.3c0-8.4-6.8-15.1-15.1-15.1h-203
	c-8.4,0-15.1,6.8-15.1,15.1v162.9c0,8.4,6.8,15.1,15.1,15.1h203c8.4,0,15.1-6.8,15.1-15.1V674.3z"/>
<path fill="#FFFFFF" stroke="#000000" stroke-miterlimit="10" d="M469.9,581.1c0,8.4-6.8,15.1-15.1,15.1h-203
	c-8.4,0-15.1-6.8-15.1-15.1V418.3c0-8.4,6.8-15.1,15.1-15.1h203c8.4,0,15.1,6.8,15.1,15.1V581.1z"/>
<path fill="#FFFFFF" stroke="#000000" stroke-miterlimit="10" d="M763.4,418.3c0-8.4-6.8-15.1-15.1-15.1h-203
	c-8.4,0-15.1,6.8-15.1,15.1v162.9c0,8.4,6.8,15.1,15.1,15.1h203c8.4,0,15.1-6.8,15.1-15.1V418.3z"/>
</svg>
