<?xml version="1.0" encoding="utf-8"?>
<!-- Generator: Adobe Illustrator 17.1.0, SVG Export Plug-In . SVG Version: 6.00 Build 0)  -->
<!DOCTYPE svg PUBLIC "-//W3C//DTD SVG 1.1//EN" "http://www.w3.org/Graphics/SVG/1.1/DTD/svg11.dtd">
<svg version="1.1" id="Layer_1" xmlns="http://www.w3.org/2000/svg" xmlns:xlink="http://www.w3.org/1999/xlink" x="0px" y="0px"
	 viewBox="0 0 1000 1000" enable-background="new 0 0 1000 1000" xml:space="preserve">
<g>
	<path fill="#FFFFFF" d="M96.2,806.8c0-102.5,0-201.5,0-302.1c-9.1-0.5-16.9-1-28.8-1.7c11.5-16.3,21.4-31.1,32.1-45.4
		c37.2-49.6,73.7-99.7,112.7-147.8c7.2-8.9,24.4-11.4,37.6-13.6c19.7-3.3,39.9-3.8,63.8-5.9c-2.2-10.5-3.4-20.6-6.6-30
		c-4-11.5,1.8-27.7,13.6-29.2c19.4-2.5,39-2.8,60.8-4.2c0,20.2,0,35.5,0,52.8c41-4.9,80-9.5,123.5-14.7c-1.3-6.3-2-14-4.6-20.9
		c-6.1-16.4,0.4-31.2,17.5-33.7c20.1-2.9,40.6-3.4,63.2-5.1c0,18.4,0,31.1,0,46c25-3.2,47.9-5.6,70.7-9.2c40.1-6.2,80-13.6,120.2-19
		c5.6-0.8,15.1,5.3,18.1,10.7c31.6,58.7,62.1,117.9,93.1,176.9c10.8,20.5,22.1,40.7,34.2,62.9c-8.4,1-14.2,1.7-20.8,2.4
		c-0.4,3.1-1.3,6.3-1.3,9.6c-1.4,83.3-3.2,166.6-3.7,249.9c-0.1,14.4-4.8,20.1-17.8,23.9c-62.3,18.3-123.9,39.6-186.8,55.3
		c-27.7,6.9-58.2,3.1-87.4,3.9c-6,0.2-12.1-0.9-18.2-0.9c-56.1-0.1-112.1,0-169.9,0c0-71.7,0-138.6,0-206.7c-26,0-49.4,0-72.8,0
		c0,67.3,0,133.9,0,202.5C258.6,811.3,178.1,809.1,96.2,806.8z"/>
</g>
</svg>
