<?xml version="1.0" encoding="utf-8"?>
<!-- Generator: Adobe Illustrator 17.1.0, SVG Export Plug-In . SVG Version: 6.00 Build 0)  -->
<!DOCTYPE svg PUBLIC "-//W3C//DTD SVG 1.1//EN" "http://www.w3.org/Graphics/SVG/1.1/DTD/svg11.dtd">
<svg version="1.1" id="Layer_1" xmlns="http://www.w3.org/2000/svg" xmlns:xlink="http://www.w3.org/1999/xlink" x="0px" y="0px"
	 viewBox="0 0 1000 1000" enable-background="new 0 0 1000 1000" xml:space="preserve">
<g>
	<path fill="#FFFFFF" d="M886.6,469.9c0,21.1,0,42.1,0,63.2c-0.6,3.9-1.3,7.8-1.8,11.7c-13.5,106.7-62.2,193.9-146.6,260.5
		c-50.4,39.8-107.6,65.1-171.1,75.5c-13.8,2.3-27.7,3.9-41.5,5.8c-15.5,0-31.1,0-46.6,0c-2.2-0.4-4.4-0.9-6.6-1.3
		c-23.4-4-47.3-6.2-70.2-12.2c-79.5-20.9-145.3-63.9-197.6-127.2c-46-55.8-74.2-119.7-83.9-191.5c-1.8-13.1-2.9-26.3-4.3-39.5
		c0-9,0-18.1,0-27.1c1.6-15.1,2.6-30.4,5-45.3c15.3-94.1,59-172.5,131.4-234.6c53.2-45.6,114.7-74.4,183.9-86
		c13.5-2.3,27.1-3.8,40.7-5.7c16,0,32.1,0,48.1,0c2.2,0.4,4.4,0.9,6.6,1.3c24.6,4.3,50,6,73.7,13.3
		c147.1,45.5,238.4,143.8,273.4,293.9C882.7,439.7,884.2,454.9,886.6,469.9z M613.6,501.2c43.1-43.1,85.7-85.6,127.1-127
		c-37.1-37.3-74-74.3-111.1-111.6c-42,42.1-84.5,84.7-127.8,128c-42.9-43.1-85.5-85.9-127.4-127.9c-37.3,37.3-74.3,74.2-112.6,112.5
		c42.1,42.1,84.8,84.7,127.9,127.8c-42.2,42.1-84.8,84.5-126.5,126c37.1,37.3,73.9,74.3,111.9,112.5c42.2-42.3,84.7-85,128.7-129.1
		c42.6,42.8,85.2,85.4,127,127.3c36.5-36.5,73.3-73.3,110.8-110.8C699.5,586.7,656.9,544.3,613.6,501.2z"/>
</g>
</svg>
