<?xml version="1.0" encoding="utf-8"?>
<!-- Generator: Adobe Illustrator 17.1.0, SVG Export Plug-In . SVG Version: 6.00 Build 0)  -->
<!DOCTYPE svg PUBLIC "-//W3C//DTD SVG 1.1//EN" "http://www.w3.org/Graphics/SVG/1.1/DTD/svg11.dtd">
<svg version="1.1"
	 id="svg5986" xmlns:svg="http://www.w3.org/2000/svg" xmlns:rdf="http://www.w3.org/1999/02/22-rdf-syntax-ns#" xmlns:cc="http://creativecommons.org/ns#" xmlns:dc="http://purl.org/dc/elements/1.1/"
	 xmlns="http://www.w3.org/2000/svg" xmlns:xlink="http://www.w3.org/1999/xlink" x="0px" y="0px" viewBox="0 0 1000 1000"
	 enable-background="new 0 0 1000 1000" xml:space="preserve">
<path id="path5998-9_2_" fill="#FFFFFF" d="M683,811.5c71.3-45.9,121.6-120.5,145-201.5c4-14.5,7.6-29.5,9.5-44.2
	c-24.7-13.8-52.3-22.9-80.4-25.9c-31.5-3-64.6,0.1-92.8,15.4c-8.4,3.5-15.6,9.6-24.3,11.9c-9.2-0.1-13.3-10.1-20.9-13.9
	c-24.6-17.8-53.5-33.2-84.8-31c-22.1,0.4-43.1,8.4-62.5,18.3c-20.3,10.6-38.3,25-56.2,39c-6.8,2.7-11.6-6-10.4-11.9
	c-0.1-21-12.7-39-20.2-58.1c-9.9-20.5-19.1-41.7-21.3-64.7c-3.8-25.4-7.8-51.3-5.7-77c3.2-7.9,13.3-5.2,19.6-3.7
	c14.5,2.1,29.9,3.1,44.3,0.2c29.3-10.2,56.8-24.2,85.2-36.7c1.9-14-0.8-29.8,8.6-41.6c7.9-12.9,16.2-25.7,24.5-38.1
	c6-9.6,1.2-21.2-5.2-29.4c-11.9-15.6-31.2-22-46.8-32.9c-14.1-8-27.8-18-43.8-21.5c-0.8,0-1.6-0.1-2.3,0v0
	c-20.8,0-43.4-1.3-61.8,10.1c-7.8,4.1-12.5,11.6-18,18.1c-20.4,18.8-41.3,37.7-57,60.8c-13,20.3-19.7,44.1-28,66.8
	c-16.6,49.7-30.3,100.3-50,148.9c-12.8,33.6-24.4,68.4-23.7,104.8c-0.8,30.1,0.6,60.4,8,89.6c5.7,26.3,15.4,51.4,22.2,77.3
	c2.7,13.2-1.1,29.1,10.2,39.1c9.9,10.4,25.8,7.5,37.7,14c16,5.5,34.2-0.1,49.6,7.6c37.2,9.2,75.9,5.9,113.9,7.6
	c17.3,3,34,8.6,51.5,11.1c28.7,4.8,58,7.4,87.1,6.1c14.5-1.2,29-0.8,60-4.1L683,811.5z"/>
</svg>
