<?xml version="1.0" encoding="utf-8"?>
<!-- Generator: Adobe Illustrator 17.1.0, SVG Export Plug-In . SVG Version: 6.00 Build 0)  -->
<!DOCTYPE svg PUBLIC "-//W3C//DTD SVG 1.1//EN" "http://www.w3.org/Graphics/SVG/1.1/DTD/svg11.dtd">
<svg version="1.1" id="Layer_1" xmlns="http://www.w3.org/2000/svg" xmlns:xlink="http://www.w3.org/1999/xlink" x="0px" y="0px"
	 viewBox="0 0 1000 1000" enable-background="new 0 0 1000 1000" xml:space="preserve">
<g>
	<path fill="#FFFFFF" d="M422.5,353.1c-11-11.7-20.1-24.8-25.7-40c-5.8-15.9-7.9-32.2-6-49.4c1.8-16.3,6.6-31.2,15-45
		c8.4-13.9,19-26,33.2-34.3c7.6-4.4,15.6-8.1,23.6-11.8c3-1.4,4.4-2.9,4.3-6.4c-0.3-9.6,0.1-19.3-0.1-28.9
		c-0.3-16,7.5-26.7,21.6-33.1c10.1-4.6,28.1,1.3,35,10.9c4.3,6,6.5,12.4,6.1,20c-0.4,10,0.2,20.1-0.3,30.1c-0.2,4.6,1.6,6.9,5.5,8.1
		c16.1,5,29.5,14.3,41.2,26.2c12.6,12.7,20.9,27.9,26.3,45c5.4,17.4,5.6,35.1,2.4,52.5c-3.1,16.7-10.2,32.2-21.4,45.5
		c-0.7,0.9-1.1,2.2-2,2.8c-10.8,6.7-4.4,15.1-1.8,22.5c5.3,15.2,11.5,30,17.3,45c4.4,11.3,8.8,22.5,13,33.8c3.8,10,7.2,20.2,11,30.2
		c4,10.3,8.5,20.5,12.4,30.9c4.1,10.9,7.8,21.9,11.8,32.8c5.1,13.6,11.2,26.8,15.2,40.7c2.7,9.5,7.6,11.2,16.5,10.9
		c18.9-0.7,37.8-0.5,56.7-0.1c6,0.1,8.4-1.6,7.5-7.6c-0.3-2.3-0.1-4.7-0.1-7.9c2.2,0,4,0,5.9,0c19.1,0,38.2-0.3,57.3,0.1
		c13.3,0.3,21.9,7.2,28.2,19.2c8.4,16-4.5,37.2-17.7,41c-3.7,1.1-7.5,2.1-11.3,2.1c-20.5,0.2-40.9,0.1-62.1,0.1c0-5.3,0-10.5,0-16.1
		c-21.6,0-42.6,0-64.5,0c2.6,7.7,5,15.3,7.8,22.7c3.6,9.5,7.8,18.7,11.4,28.2c6.1,15.9,11.9,31.9,17.8,47.9
		c3.8,10.2,8.4,20.2,11,30.7c4.5,18.3,2.4,36.1-7.4,52.5c-2.7,4.6-6.5,8.6-9.3,13.1c-1.4,2.3-2.4,5.3-2.4,8
		c-0.2,24.4-0.1,48.8-1.2,73.5c-2-5-4-9.9-6-14.9c-6.3-16.6-12.7-33.2-18.9-49.8c-6.9-18.5-13.4-37.1-20.3-55.5
		c-8.6-23.1-17.3-46.2-25.9-69.3c-7.5-19.9-15-39.7-22.6-59.6c-3.2-8.4-6.3-16.8-9.7-25.1c-0.5-1.2-2.4-2.7-3.7-2.7
		c-26.3-0.2-52.7-0.1-79.8-0.1c0,12.7,0.1,25.1,0,37.4c-0.1,6.8-1.6,13.2-7.3,17.6c-5.9,4.6-12.9,5.4-19.6,2.3
		c-7.2-3.4-10.9-9.6-10.9-17.8c0-11-0.2-22.1,0.1-33.1c0.1-4.7-1.1-6.6-6.2-6.5c-24,0.3-48,0.2-72.1,0.1c-3.4,0-4.9,0.8-6.2,4.4
		c-7.1,19.4-14.9,38.7-22.3,58c-3.8,9.9-7.1,19.9-10.9,29.7c-6.4,16.8-12.9,33.6-19.3,50.4c-6.1,16.1-12,32.2-18,48.3
		c-3.5,9.3-6.9,18.6-10.5,27.9c-4.3,11.5-8.7,22.9-13.1,34.4c-3.1,8.2-6.1,16.4-10.3,24.5c-0.1-1.6-0.3-3.2-0.3-4.7
		c0-23.2,0.1-46.5-0.2-69.7c0-3.2-1.1-7.2-3.1-9.5c-15.1-16.5-19.2-36.3-16.5-57.4c1.4-10.7,6-21,9.8-31.2
		c7.9-21.4,16.1-42.7,24.2-64c5.1-13.4,10.1-26.8,15.4-40.7c-21.3,0-42.2,0-63.8,0c0,5.1,0,10.3,0,16.1c-9.4,0-18.2,0-27,0
		c-11.2,0-22.5-0.3-33.7,0.1c-21.3,0.6-35.2-15.8-34.1-34.5c0.8-12.7,13.8-27.8,26.6-28.1c22.4-0.5,44.8-0.1,67.9-0.1
		c0,5.1,0,9.9,0,15.4c6.5,0,12.3,0,18.2,0c17.5,0,35-0.1,52.6,0.1c4.1,0.1,5.7-1.2,7-5c6.6-18.4,13.5-36.7,20.5-54.9
		c8.5-22.1,17.4-44.1,25.8-66.3c10.4-27.6,20.5-55.4,30.8-83C414.7,372.8,418.6,363.2,422.5,353.1z M509.8,383.7
		c-6.7,0-13.2-0.1-19.7,0.1c-1.5,0.1-3.7,0.9-4.3,2c-1.6,3.2-2.5,6.7-3.8,10.1c-5.4,14.5-10.7,29.1-16.2,43.6
		c-9.1,24-18.4,47.9-27.4,71.8c-5.8,15.2-11.3,30.5-17,45.7c-4.2,11.4-8.5,22.7-12.9,34.6c22.9,0,44.9,0,67,0c4.1,0,4.3-2.4,4.2-5.4
		c-0.1-11.2-0.1-22.4,0-33.6c0.1-9.2,4.7-15.7,12.5-18.9c9.7-4.1,25.4,2.7,25.3,18.7c-0.1,11.2,0.2,22.4-0.1,33.6
		c-0.1,4.4,1.5,5.9,5.8,5.7c7.1-0.3,14.2-0.1,21.2-0.1c14.1,0,28.3,0,43.6,0C561.8,521.8,535.9,452.8,509.8,383.7z M549.4,274.8
		c1.9-28.8-23.7-51.1-48.3-51.7c-32.2-0.8-54.7,23.2-54.5,52c0.2,29.4,22.9,51,51.1,52C524.9,327.9,552.2,302.3,549.4,274.8z"/>
</g>
</svg>
