<?xml version="1.0" encoding="utf-8"?>
<!-- Generator: Adobe Illustrator 17.1.0, SVG Export Plug-In . SVG Version: 6.00 Build 0)  -->
<!DOCTYPE svg PUBLIC "-//W3C//DTD SVG 1.1//EN" "http://www.w3.org/Graphics/SVG/1.1/DTD/svg11.dtd">
<svg version="1.1" id="Layer_1" xmlns="http://www.w3.org/2000/svg" xmlns:xlink="http://www.w3.org/1999/xlink" x="0px" y="0px"
	 viewBox="0 0 1000 1000" enable-background="new 0 0 1000 1000" xml:space="preserve">
<path fill="#FFFFFF" stroke="#000000" stroke-miterlimit="10" d="M674.3,469.8c-8.4,0-15.1-6.8-15.1-15.1v-203
	c0-8.4,6.8-15.1,15.1-15.1h162.9c8.4,0,15.1,6.8,15.1,15.1v203c0,8.4-6.8,15.1-15.1,15.1H674.3z"/>
<path fill="#FFFFFF" stroke="#000000" stroke-miterlimit="10" d="M837.2,763.4c8.4,0,15.1-6.8,15.1-15.1v-203
	c0-8.4-6.8-15.1-15.1-15.1H674.3c-8.4,0-15.1,6.8-15.1,15.1v203c0,8.4,6.8,15.1,15.1,15.1H837.2z"/>
<path fill="#FFFFFF" stroke="#000000" stroke-miterlimit="10" d="M162.8,469.8c-8.4,0-15.1-6.8-15.1-15.1v-203
	c0-8.4,6.8-15.1,15.1-15.1h162.9c8.4,0,15.1,6.8,15.1,15.1v203c0,8.4-6.8,15.1-15.1,15.1H162.8z"/>
<path fill="#FFFFFF" stroke="#000000" stroke-miterlimit="10" d="M325.8,763.4c8.4,0,15.1-6.8,15.1-15.1v-203
	c0-8.4-6.8-15.1-15.1-15.1H162.9c-8.4,0-15.1,6.8-15.1,15.1v203c0,8.4,6.8,15.1,15.1,15.1H325.8z"/>
<path fill="#FFFFFF" stroke="#000000" stroke-miterlimit="10" d="M419,469.8c-8.4,0-15.1-6.8-15.1-15.1v-203
	c0-8.4,6.8-15.1,15.1-15.1l162.8,0c8.4,0,15.1,6.8,15.1,15.1v203c0,8.4-6.8,15.1-15.1,15.1H419z"/>
<path fill="#FFFFFF" stroke="#000000" stroke-miterlimit="10" d="M581.8,763.4c8.4,0,15.1-6.8,15.1-15.1v-203
	c0-8.4-6.8-15.1-15.1-15.1H418.9c-8.4,0-15.1,6.8-15.1,15.1v203c0,8.4,6.8,15.1,15.1,15.1H581.8z"/>
</svg>
